<?xml version="1.0" encoding="UTF-8" standalone="no"?>
<!-- Created with Inkscape (http://www.inkscape.org/) -->

<svg
   xmlns:dc="http://purl.org/dc/elements/1.1/"
   xmlns:cc="http://creativecommons.org/ns#"
   xmlns:rdf="http://www.w3.org/1999/02/22-rdf-syntax-ns#"
   xmlns:svg="http://www.w3.org/2000/svg"
   xmlns="http://www.w3.org/2000/svg"
   xmlns:sodipodi="http://sodipodi.sourceforge.net/DTD/sodipodi-0.dtd"
   xmlns:inkscape="http://www.inkscape.org/namespaces/inkscape"
   width="1024"
   height="512"
   id="svg2"
   version="1.1"
   inkscape:version="0.48.4 r9939"
   inkscape:export-filename="/home/jm/Documents/programmeren/android/OneShot/android/assets/buttons/buttons.png"
   inkscape:export-xdpi="90"
   inkscape:export-ydpi="90"
   sodipodi:docname="buttons.svg">
  <defs
     id="defs4" />
  <sodipodi:namedview
     id="base"
     pagecolor="#ffffff"
     bordercolor="#666666"
     borderopacity="1.0"
     inkscape:pageopacity="0.0"
     inkscape:pageshadow="2"
     inkscape:zoom="0.5"
     inkscape:cx="270.27013"
     inkscape:cy="-103.44178"
     inkscape:document-units="px"
     inkscape:current-layer="layer1"
     showgrid="false"
     inkscape:window-width="1916"
     inkscape:window-height="1062"
     inkscape:window-x="0"
     inkscape:window-y="14"
     inkscape:window-maximized="0"
     showguides="true"
     inkscape:guide-bbox="true" />
  <metadata
     id="metadata7">
    <rdf:RDF>
      <cc:Work
         rdf:about="">
        <dc:format>image/svg+xml</dc:format>
        <dc:type
           rdf:resource="http://purl.org/dc/dcmitype/StillImage" />
        <dc:title></dc:title>
      </cc:Work>
    </rdf:RDF>
  </metadata>
  <g
     inkscape:label="Layer 1"
     inkscape:groupmode="layer"
     id="layer1"
     transform="translate(0,-540.36218)">
    <rect
       style="fill:#000000;fill-opacity:1;stroke:none"
       id="rect3755"
       width="1023"
       height="511"
       x="-1449.64"
       y="656.3277" />
    <path
       style="fill:#ffffff;fill-opacity:1;stroke:none"
       d="M 32,556.36217 224,668.36216 32,780.36218 z"
       id="path2985"
       inkscape:connector-curvature="0"
       sodipodi:nodetypes="cccc" />
    <path
       style="fill:#ffffff;fill-opacity:1;stroke:none"
       d="m 383.99997,540.36216 -63.99997,43 63.99997,43 0,-32 c 40.8691,0 74,33.131 74,74 0,40.8691 -33.1309,74 -74,74 -40.86907,0 -73.99997,-33.1309 -73.99997,-74 l -22,0 c 0,53.0193 42.9806,96.00002 95.99997,96.00002 53.0193,0 96,-42.98072 96,-96.00002 0,-53.0193 -42.9807,-96 -96,-96 l 0,-32 z"
       id="path3757"
       inkscape:connector-curvature="0" />
    <path
       style="fill:#ffffff;fill-opacity:1;stroke:none"
       d="M 544 16 L 544 70 L 736 70 L 736 16 L 544 16 z M 544 101 L 544 155 L 736 155 L 736 101 L 544 101 z M 544 186 L 544 240 L 736 240 L 736 186 L 544 186 z "
       transform="translate(0,540.36218)"
       id="rect3789" />
    <g
       transform="matrix(1.059051,0,0,0.94424157,-2.1249988,0)"
       style="font-size:271.79962158px;font-style:normal;font-weight:normal;line-height:125%;letter-spacing:0px;word-spacing:0px;fill:#ffffff;fill-opacity:1;stroke:none;font-family:Sans"
       id="text3862">
      <path
         d="m 929.25174,655.24147 c -1.7e-4,7.85245 -1.05083,14.76466 -3.15197,20.73667 -1.99089,5.9723 -4.70048,11.33618 -8.12877,16.09165 -3.42862,4.64514 -7.35476,8.84776 -11.77842,12.60789 -4.31338,3.64977 -8.7372,7.13352 -13.27147,10.45127 -4.53455,3.31798 -9.01367,6.58054 -13.43736,9.78771 -4.31334,3.20737 -8.23948,6.69112 -11.77842,10.45128 -3.42857,3.76033 -6.24876,7.96296 -8.46056,12.60789 -2.10142,4.53449 -3.20737,9.84307 -3.31786,15.92575 l -29.03133,0 c 0.22111,-7.63102 1.38237,-14.32204 3.48376,-20.07308 2.21183,-5.75088 5.03201,-10.83827 8.46056,-15.26219 3.42837,-4.42372 7.29921,-8.34986 11.61253,-11.77842 4.31312,-3.53895 8.68164,-6.85681 13.10557,-9.9536 4.4237,-3.20715 8.73693,-6.35912 12.93968,-9.45592 4.31309,-3.20714 8.12864,-6.74619 11.44663,-10.61717 3.31773,-3.8707 5.97202,-8.23922 7.96288,-13.10557 2.10117,-4.86605 3.15183,-10.56171 3.15197,-17.08701 -1.4e-4,-6.52496 -1.16139,-12.33122 -3.48376,-17.4188 -2.32264,-5.0872 -5.6405,-9.34512 -9.95359,-12.77378 -4.20276,-3.53886 -9.34545,-6.19315 -15.42808,-7.96288 -5.97227,-1.76932 -12.66329,-2.65408 -20.07309,-2.65429 -15.48346,2.1e-4 -27.75955,3.87105 -36.82831,11.61253 -9.06889,7.74188 -14.37747,18.35904 -15.92576,31.85151 l -30.52437,-1.99072 c 1.21654,-9.28984 3.64964,-18.02688 7.29931,-26.21114 3.76022,-8.29446 8.95821,-15.53846 15.59397,-21.73202 6.74628,-6.19313 15.04094,-11.05933 24.88399,-14.59861 9.95353,-3.64942 21.67664,-5.47424 35.16938,-5.47448 12.60778,2.4e-4 23.83322,1.54857 33.67634,4.64501 9.84287,3.09691 18.13752,7.52072 24.884,13.27146 6.85676,5.64059 12.05474,12.5528 15.59397,20.73667 3.53888,8.18426 5.30841,17.30838 5.30858,27.37239 m -103.68331,171.20189 0,-33.34455 32.3492,0 0,33.34455 -32.3492,0"
         style="font-size:339.7494812px;font-variant:normal;font-stretch:normal;font-family:Liberation Sans;-inkscape-font-specification:Liberation Sans"
         id="path3871"
         inkscape:connector-curvature="0" />
    </g>
    <rect
       style="fill:#fe0000;fill-opacity:1;stroke:none"
       id="rect3918"
       width="192"
       height="224"
       x="-250"
       y="836.36218" />
    <path
       id="path3909"
       d="m 223.00117,907.80047 c -0.66894,-0.87606 -1.54195,-1.3977 -2.62514,-1.56342 l -22.87442,-3.49966 c -1.25041,-3.99984 -2.9596,-8.08253 -5.12599,-12.2496 1.499,-2.08354 3.74822,-5.02013 6.74772,-8.81286 2.9995,-3.79271 5.12446,-6.56208 6.37488,-8.31265 0.66741,-0.9175 0.99881,-1.87488 0.99881,-2.87522 0,-1.16604 -0.28996,-2.08201 -0.87451,-2.74942 -2.9995,-4.25146 -9.87456,-11.33365 -20.62519,-21.25116 -0.99727,-0.83311 -2.04058,-1.24888 -3.12223,-1.24888 -1.25046,0 -2.2508,0.37434 -3.00104,1.12306 l -17.74842,13.37576 c -3.41835,-1.7506 -7.16811,-3.29253 -11.2508,-4.6258 l -3.49968,-22.9987 c -0.0828,-1.08319 -0.56305,-1.97921 -1.4376,-2.68806 -0.87607,-0.70882 -1.89482,-1.0617 -3.06393,-1.0617 h -27.7488 c -2.41647,0 -3.91699,1.16604 -4.5,3.49966 -1.08323,4.16556 -2.29221,11.91514 -3.6255,23.2488 -3.91699,1.25196 -7.70816,2.8353 -11.37506,4.75162 L 77.37448,846.48648 c -1.08321,-0.83311 -2.1664,-1.24888 -3.24959,-1.24888 -1.83346,0 -5.77038,2.97801 -11.81233,8.93712 -6.04196,5.9591 -10.14459,10.43762 -12.31252,13.43712 -0.75026,1.08318 -1.1246,2.04211 -1.1246,2.87522 0,1.00034 0.41577,2.00067 1.24888,2.9995 5.58321,6.75077 10.04179,12.49968 13.37576,17.25131 -2.08355,3.83261 -3.70833,7.66675 -4.87437,11.49934 l -23.25033,3.49968 c -0.91596,0.16723 -1.70763,0.70883 -2.37504,1.6263 C 32.33293,908.27916 32,909.23807 32,910.23689 v 27.75034 c 0,1.08472 0.33293,2.06204 1.00034,2.93658 0.66741,0.87608 1.54195,1.39926 2.62514,1.56495 l 22.87593,3.3754 c 1.16608,4.08269 2.87371,8.20681 5.12448,12.37235 -1.49898,2.08353 -3.74976,5.02013 -6.74924,8.81284 -2.9995,3.79269 -5.12599,6.56206 -6.37492,8.31266 -0.66739,0.91904 -1.00034,1.87488 -1.00034,2.87523 0,1.08319 0.29154,2.04058 0.87455,2.87369 3.2496,4.50155 10.12464,11.50243 20.62519,21.00107 0.91749,0.9175 1.95927,1.3747 3.1253,1.3747 1.25042,0 2.29219,-0.3743 3.1253,-1.1231 l 17.6257,-13.37724 c 3.41834,1.7506 7.1681,3.29254 11.25079,4.62734 l 3.49966,22.9987 c 0.0845,1.0832 0.56308,1.9792 1.43762,2.6881 0.87454,0.7103 1.89637,1.0617 3.0624,1.0617 h 27.75034 c 2.41952,0 3.91851,-1.1661 4.50307,-3.4997 1.08165,-4.1671 2.28912,-11.9151 3.62241,-23.2488 3.91699,-1.25042 7.7097,-2.8353 11.37507,-4.75162 l 17.25132,13.50152 c 1.16603,0.7488 2.25076,1.1231 3.24958,1.1231 1.83191,0 5.7489,-2.9565 11.7479,-8.8742 6.00206,-5.91611 10.12618,-10.41767 12.37388,-13.50157 0.75024,-0.83311 1.12616,-1.7905 1.12616,-2.87369 0,-1.0832 -0.41579,-2.12803 -1.25042,-3.12531 -5.999,-7.33379 -10.45759,-13.08271 -13.37577,-17.24978 1.66621,-3.08389 3.29253,-6.87506 4.87591,-11.37508 l 23.1245,-3.49813 c 0.9988,-0.16723 1.83498,-0.71038 2.50086,-1.62787 0.66585,-0.91749 0.99728,-1.87639 0.99728,-2.87522 v -27.74878 c 0.002,-1.08319 -0.32989,-2.06052 -0.99882,-2.9366 z m -72.37301,39.18678 c -6.24908,6.2506 -13.79154,9.37591 -22.62586,9.37591 -8.83432,0 -16.37528,-3.12531 -22.62587,-9.37591 -6.24908,-6.24908 -9.37438,-13.79002 -9.37438,-22.62434 0,-8.83431 3.12376,-16.37526 9.37438,-22.62586 6.25059,-6.24908 13.79308,-9.37438 22.62587,-9.37438 8.83432,0 16.37678,3.1253 22.62586,9.37438 6.2491,6.2506 9.3744,13.79155 9.3744,22.62586 0,8.83432 -3.1253,16.37526 -9.3744,22.62434 z"
       inkscape:connector-curvature="0"
       style="fill:#ffffff;fill-opacity:1;stroke:none" />
    <path
       style="fill:#ffffff;fill-opacity:1;stroke:none"
       d="m 311,820.36216 -23,23 73.53125,77 L 288,997.36218 l 23,23.00002 73,-76.46879 73,76.46879 23,-23.00002 -73.53125,-77.00002 73.53125,-77 -23,-23 -73,76.46875 -73,-76.46875 z"
       id="path3938"
       inkscape:connector-curvature="0" />
    <rect
       style="fill:#f0591a;fill-opacity:1;stroke:none"
       id="rect3136"
       width="512"
       height="256"
       x="-1022"
       y="940.36218" />
    <path
       style="fill:#ffffff;fill-opacity:1;stroke:none"
       d="M -894.00003,940.36218 -958,983.36217 l 63.99997,43.00003 0,-32.00003 c 40.8691,0 74,33.13103 74,74.00003 0,40.8691 -33.1309,74 -74,74 -40.86907,0 -73.99997,-33.1309 -73.99997,-74 l -22,0 c 0,53.0193 42.9806,96 95.99997,96 53.0193,0 96,-42.9807 96,-96 0,-53.0193 -42.9807,-96.00002 -96,-96.00002 l 0,-32 z"
       id="path3757-8"
       inkscape:connector-curvature="0" />
    <path
       inkscape:connector-curvature="0"
       style="fill:#ffffff;fill-opacity:1;stroke:none"
       d="m -734,956.3622 0,54 192,0 0,-54 -192,0 z m 0,85 0,54 192,0 0,-54 -192,0 z m 0,85 0,54 192,0 0,-54 -192,0 z"
       id="rect3789-3" />
  </g>
</svg>
