<?xml version="1.0" encoding="UTF-8" standalone="no"?>
<!-- Created with Inkscape (http://www.inkscape.org/) -->

<svg
   xmlns:dc="http://purl.org/dc/elements/1.1/"
   xmlns:cc="http://creativecommons.org/ns#"
   xmlns:rdf="http://www.w3.org/1999/02/22-rdf-syntax-ns#"
   xmlns:svg="http://www.w3.org/2000/svg"
   xmlns="http://www.w3.org/2000/svg"
   xmlns:sodipodi="http://sodipodi.sourceforge.net/DTD/sodipodi-0.dtd"
   xmlns:inkscape="http://www.inkscape.org/namespaces/inkscape"
   width="128"
   height="64"
   id="svg2"
   version="1.1"
   inkscape:version="0.48.4 r9939"
   sodipodi:docname="New document 1">
  <defs
     id="defs4" />
  <sodipodi:namedview
     id="base"
     pagecolor="#ffffff"
     bordercolor="#666666"
     borderopacity="1.0"
     inkscape:pageopacity="0.0"
     inkscape:pageshadow="2"
     inkscape:zoom="5.6"
     inkscape:cx="16.213717"
     inkscape:cy="43.116077"
     inkscape:document-units="px"
     inkscape:current-layer="layer1"
     showgrid="false"
     inkscape:window-width="1916"
     inkscape:window-height="1062"
     inkscape:window-x="0"
     inkscape:window-y="14"
     inkscape:window-maximized="0" />
  <metadata
     id="metadata7">
    <rdf:RDF>
      <cc:Work
         rdf:about="">
        <dc:format>image/svg+xml</dc:format>
        <dc:type
           rdf:resource="http://purl.org/dc/dcmitype/StillImage" />
        <dc:title></dc:title>
      </cc:Work>
    </rdf:RDF>
  </metadata>
  <g
     inkscape:label="Layer 1"
     inkscape:groupmode="layer"
     id="layer1"
     transform="translate(0,-988.36218)">
    <path
       sodipodi:type="arc"
       style="fill:#f0f0f0;fill-opacity:1;stroke:none"
       id="path2985"
       sodipodi:cx="34.642857"
       sodipodi:cy="31.946428"
       sodipodi:rx="26.785715"
       sodipodi:ry="27.053572"
       d="m 61.428572,31.946428 a 26.785715,27.053572 0 1 1 -53.5714305,0 26.785715,27.053572 0 1 1 53.5714305,0 z"
       transform="matrix(1.1946666,0,0,1.1828383,-9.3866648,982.57472)" />
    <path
       sodipodi:type="arc"
       style="fill:#f0f0f0;fill-opacity:1;stroke:none"
       id="path2985-1"
       sodipodi:cx="34.642857"
       sodipodi:cy="31.946428"
       sodipodi:rx="26.785715"
       sodipodi:ry="27.053572"
       d="m 61.428572,31.946428 a 26.785715,27.053572 0 1 1 -53.5714305,0 26.785715,27.053572 0 1 1 53.5714305,0 z"
       transform="matrix(1.1946666,0,0,1.1828383,54.613335,982.57472)" />
    <path
       sodipodi:type="arc"
       style="fill:#c7c7c7;fill-opacity:1;stroke:none"
       id="path3777"
       sodipodi:cx="31.071428"
       sodipodi:cy="31.232143"
       sodipodi:rx="12.857142"
       sodipodi:ry="13.839286"
       d="m 43.928571,31.232143 a 12.857142,13.839286 0 1 1 -25.714285,0 12.857142,13.839286 0 1 1 25.714285,0 z"
       transform="matrix(1.2444445,0,0,1.156129,-6.6666678,984.25379)" />
    <path
       sodipodi:type="arc"
       style="fill:#ff921a;fill-opacity:1;stroke:none"
       id="path3777-9"
       sodipodi:cx="31.071428"
       sodipodi:cy="31.232143"
       sodipodi:rx="12.857142"
       sodipodi:ry="13.839286"
       d="m 43.928571,31.232143 a 12.857142,13.839286 0 1 1 -25.714285,0 12.857142,13.839286 0 1 1 25.714285,0 z"
       transform="matrix(1.2444445,0,0,1.156129,57.333332,984.25379)" />
  </g>
</svg>
